{"title":"Star Wars - [despecialized]  (1977)  x264 (multi-subs) [=Faith=]","uid":12047264,"size":5499986882,"categoryP":"video","categoryS":"movies","magnet":"?xt=urn:btih:851cc87672dbee3b3913726e5e4636d4855810ea&amp;dn=Star+Wars+-+%5Bdespecialized%5D++%281977%29++x264+%28multi-subs%29+%5B%3DFaith%3D%5D&amp;tr=udp%3A%2F%2Ftracker.openbittorrent.com%3A80&amp;tr=udp%3A%2F%2Fopen.demonii.com%3A1337&amp;tr=udp%3A%2F%2Ftracker.coppersurfer.tk%3A6969&amp;tr=udp%3A%2F%2Fexodus.desync.com%3A6969","seeders":0,"leechers":2,"uploader":"Faithwyn","files":46,"time":1434924582,"description":" Star Wars 1977 - Despecialized\n\n\nLuke Skywalker joins forces with a Jedi Knight, a cocky pilot, a wookiee and two droids\nto save the universe from the Empire's world-destroying battle-station, while also\nattempting to rescue Princess Leia from the evil Darth Vader.\n\nThe Film:\n\nDirected by: George Lucas\nProduced by: Gary Kurtz\nWritten by: George Lucas\nStarring: Mark Hamill\nHarrison Ford\nCarrie Fisher\nPeter Cushing\nAlec Guinness\nMusic by: John Williams\nCinematography: Gilbert Taylor\nEdited by: Paul Hirsch\nMarcia Lucas\nRichard Chew\nProduction company: Lucasfilm Ltd\nDistributed by: 20th Century Fox\nRelease date: May 25, 1977\nRunning time: 121 minutes\nDespecialized Edition v2.5 by: Harmy\nCountry: United States\nLanguage: English\nSubtitles: English, French, German, Italian, Spanish\nIMDB Rating: 8.7\n\n\nGeneral:\n\nComplete name : Star Wars (1977).m4v\nFormat : MPEG-4\nFormat profile : Base Media / Version 2\nCodec ID : mp42\nFile size : 5.10 GiB\nDuration : 2h 1min\nOverall bit rate mode : Variable\nOverall bit rate : 6 001 Kbps\nEncoded date : UTC 2015-06-20 19:18:27\nTagged date : UTC 2015-06-20 22:21:17\nWriting application : HandBrake 0.9.9\n\n\n&quot;Despecialized Editions&quot; are high definition reconstructions of the theatrical versions of the STAR WARS films. The original shots are painstakingly restored using various sources ranging from VHS, LaserDisc,DVD, BluRay to 35mm print scans. A gallery of all the changes can be found here: &lt;a href=&quot;\nhttps://plus.google.com/u/1/photos/109609428403596349302/albums/5932164278535972945?sort=1&quot; rel=&quot;nofollow&quot; target=&quot;_NEW&quot;&gt;\nhttps://plus.google.com/u/1/photos/109609428403596349302/albums/5932164278535972945?sort=1&lt;/a&gt;\n\nThe main goal is to get as close as possible to the original versions of the films as seen in cinemas\non opening day, while maintaining high picture and audio quality.\n\nIntroducing the Despecialized Edition and Its Sources:\n\nID : 1\nFormat : AVC\nFormat/Info : Advanced Video Codec\nFormat profile : &lt;a class=&quot;__cf_email__&quot; href=&quot;/cdn-cgi/l/email-protection&quot; data-cfemail=&quot;2c64454b446c6018021c&quot;&gt;[email&amp;#160;protected]&lt;/a&gt;&lt;script data-cfhash='f9e31' type=&quot;text/javascript&quot;&gt;\n/* &lt;![CDATA[ */!function(){try{var t=&quot;currentScript&quot;in document?document.currentScript:function(){for(var t=document.getElementsByTagName(&quot;script&quot;),e=t.length;e--;)if(t[e].getAttribute(&quot;data-cfhash&quot;))return t[e]}();if(t&amp;&amp;t.previousSibling){var e,r,n,i,c=t.previousSibling,a=c.getAttribute(&quot;data-cfemail&quot;);if(a){for(e=&quot;&quot;,r=parseInt(a.substr(0,2),16),n=2;a.length-n;n+=2)i=parseInt(a.substr(n,2),16)^r,e+=String.fromCharCode(i);e=document.createTextNode(e),c.parentNode.replaceChild(e,c)}t.parentNode.removeChild(t);}}catch(u){}}()/* ]]&gt; */&lt;/script&gt;\nFormat settings, CABAC : Yes\nFormat settings, ReFrames : 8 frames\nCodec ID : avc1\nCodec ID/Info : Advanced Video Coding\nDuration : 2h 1min\nBit rate : 5 167 Kbps\nWidth : 1 280 pixels\nHeight : 540 pixels\nDisplay aspect ratio : 2.40:1\nFrame rate mode : Variable\nFrame rate : 23.976 fps\nMinimum frame rate : 11.987 fps\nMaximum frame rate : 23.981 fps\nColor space : YUV\nChroma subsampling : 4:2:0\nBit depth : 8 bits\nScan type : Progressive\nBits/(Pixel*Frame) : 0.312\nStream size : 4.39 GiB (86%)\nWriting library : x264 core 130 r2273 b3065e6\nEncoding settings : (see .nfo file for details)\nEncoded date : UTC 2015-06-20 19:18:27\nTagged date : UTC 2015-06-20 22:21:17\n\n\nAudio 1:\n\nID : 2\nFormat : AAC\nFormat/Info : Advanced Audio Codec\nFormat profile : LC\nCodec ID : 40\nDuration : 2h 1mn\nBit rate mode : Variable\nBit rate : 192 Kbps\nMaximum bit rate : 305 Kbps\nChannels : 2 channels\nChannel positions : Front: L R\nSampling rate : 48.0 KHz\nCompression mode : Lossy\nStream size : 166 MiB (3%)\n\n\nAudio 2:\n\nID : 3\nFormat : AC-3\nFormat/Info : Audio Coding 3\nMode extension : CM (complete main)\nFormat settings, Endianness : Big\nCodec ID : ac-3\nDuration : 2h 1mn\nBit rate mode : Constant\nBit rate : 640 Kbps\nChannels : 6 channels\nChannel positions : Front: L C R, Side: L R, LFE\nSampling rate : 48.0 KHz\nBit depth : 16 bits\nCompression mode : Lossy\nStream size : 554 MiB (11%)\n\n\nSubtitles:\n\nLanguages: English, French, German, Italian, Spanish\nAdditional Subs: Many more languages (see subtitle folder)(some untested) \n\n\nAll credits go to Harmy: http://originaltrilogy.com/forum/topic.cfm/Harmys-STAR-WARS-Despecialized-Edition-HD-V25-MKV-IS-OUT-NOW/topic/12713/","torrent":{"xt":"urn:btih:851cc87672dbee3b3913726e5e4636d4855810ea","amp;dn":"Star+Wars+-+%5Bdespecialized%5D++%281977%29++x264+%28multi-subs%29+%5B%3DFaith%3D%5D","amp;tr":["udp%3A%2F%2Ftracker.openbittorrent.com%3A80","udp%3A%2F%2Fopen.demonii.com%3A1337","udp%3A%2F%2Ftracker.coppersurfer.tk%3A6969","udp%3A%2F%2Fexodus.desync.com%3A6969"],"infoHash":"851cc87672dbee3b3913726e5e4636d4855810ea","infoHashBuffer":{"type":"Buffer","data":[133,28,200,118,114,219,238,59,57,19,114,110,94,70,54,212,133,88,16,234]},"announce":[],"urlList":[]}}